<?xml version="1.0" standalone="no"?>
<!DOCTYPE svg PUBLIC "-//W3C//DTD SVG 20010904//EN"
 "http://www.w3.org/TR/2001/REC-SVG-20010904/DTD/svg10.dtd">
<svg version="1.0" xmlns="http://www.w3.org/2000/svg"
 width="206.000000pt" height="206.000000pt" viewBox="0 0 206.000000 206.000000"
 preserveAspectRatio="xMidYMid meet">
<metadata>
Created by potrace 1.11, written by Peter Selinger 2001-2013
</metadata>
<g transform="translate(0.000000,206.000000) scale(0.100000,-0.100000)"
fill="#000000" stroke="none">
<path d="M256 1893 c-4 -5 -24 -9 -44 -9 -82 -3 -77 0 -76 -46 1 -24 -4 -49
-10 -57 -8 -11 -8 -13 0 -8 8 5 12 -11 12 -54 0 -33 2 -63 5 -66 4 -3 37 -6
74 -6 37 0 74 -5 82 -11 12 -9 13 -8 7 2 -6 10 -1 13 20 12 54 -4 69 0 82 21
8 12 9 18 3 14 -7 -3 -11 2 -11 15 0 14 4 19 13 14 9 -6 9 -4 -1 8 -10 13 -10
17 0 21 10 4 10 6 1 6 -7 1 -13 8 -13 17 0 9 5 12 13 8 9 -6 9 -4 -1 8 -10 13
-10 17 0 21 10 4 10 6 1 6 -7 1 -13 8 -13 17 0 9 5 12 13 8 8 -6 8 -3 -1 9 -8
9 -11 21 -7 27 6 10 -49 15 -118 11 -17 -1 -26 3 -22 9 7 12 2 13 -9 3z"/>
<path d="M1153 1893 c5 -7 -36 -10 -123 -9 l-130 1 -1 -25 c-1 -14 -1 -29 0
-34 1 -4 -4 -15 -11 -24 -11 -13 -11 -14 0 -8 9 6 12 1 10 -16 -2 -12 -7 -29
-12 -37 -6 -9 -5 -12 1 -8 6 4 10 -9 10 -34 0 -48 1 -49 46 -51 23 -1 34 -5
30 -12 -4 -6 1 -5 10 3 14 11 20 11 34 0 11 -10 14 -10 9 -1 -4 7 -1 12 9 12
10 0 14 -5 9 -12 -6 -10 -4 -10 7 0 16 14 33 16 24 2 -3 -5 -1 -10 4 -10 6 0
11 5 11 10 0 6 16 10 35 10 40 0 37 -11 39 138 0 57 -3 106 -8 109 -5 4 -6 1
-3 -4z"/>
<path d="M1721 1893 c-1 -8 -14 -13 -31 -13 -28 0 -30 -3 -31 -37 -2 -72 -4
-88 -13 -102 -6 -9 -5 -12 1 -8 7 4 11 -8 10 -33 -1 -22 2 -42 6 -46 3 -4 46
-7 94 -6 52 0 94 -5 102 -12 12 -8 13 -8 7 2 -5 8 2 12 23 12 34 0 36 7 33
108 -1 24 2 41 6 38 4 -2 8 4 8 14 0 10 -3 17 -7 14 -4 -2 -6 8 -6 22 0 33 -7
38 -48 37 -22 -1 -33 3 -28 10 4 6 1 7 -8 1 -24 -15 -60 -16 -77 -2 -12 10
-14 10 -8 1 4 -8 2 -13 -8 -13 -8 0 -17 6 -19 13 -4 10 -6 10 -6 0z"/>
<path d="M530 1880 c-4 -3 -9 -21 -11 -40 -2 -19 -8 -38 -14 -42 -6 -5 -5 -8
3 -8 6 0 12 -7 12 -16 0 -9 -5 -12 -12 -8 -9 5 -9 2 1 -9 11 -14 11 -17 0 -17
-12 0 -12 -2 -1 -9 8 -4 13 -14 12 -22 -8 -52 -2 -58 58 -61 41 -2 56 -7 54
-16 -1 -8 2 -11 8 -7 6 3 8 11 4 16 -3 6 0 10 7 8 8 -1 41 -1 74 0 l60 1 -1
70 c-1 55 2 73 15 81 14 9 14 10 -2 5 -14 -4 -17 -1 -16 17 6 64 10 62 -122
62 -66 0 -124 -2 -129 -5z"/>
<path d="M1333 1882 l-53 -3 0 -115 0 -114 130 0 130 0 0 114 0 114 -77 4
c-43 2 -102 2 -130 0z"/>
<path d="M213 1585 c0 -8 4 -12 9 -9 5 3 6 10 3 15 -9 13 -12 11 -12 -6z"/>
<path d="M256 1562 c-3 -5 -29 -10 -58 -11 -28 -1 -54 -4 -57 -6 -3 -3 -5 -27
-5 -53 1 -26 -4 -50 -10 -54 -8 -5 -7 -8 2 -8 16 0 16 -32 0 -49 -9 -9 -9 -12
-1 -7 13 7 13 -51 -1 -73 -6 -9 -5 -12 1 -8 15 9 15 -74 0 -92 -9 -12 -9 -13
1 -7 7 4 12 2 12 -6 0 -8 -6 -20 -12 -27 -10 -11 -10 -13 0 -7 16 9 16 -16 0
-33 -11 -11 -10 -12 0 -7 15 9 13 -29 -2 -53 -6 -9 -5 -12 1 -8 6 4 10 -14 10
-44 0 -30 -3 -45 -8 -37 -5 7 -9 10 -9 5 0 -4 6 -16 12 -27 10 -16 10 -24 0
-41 -8 -12 -9 -18 -4 -15 13 8 10 -53 -2 -73 -6 -9 -5 -12 1 -8 15 9 15 -74 0
-92 -9 -12 -9 -13 1 -7 16 10 16 -16 -1 -33 -9 -11 -9 -13 0 -7 17 9 17 -16 1
-33 -11 -11 -10 -12 0 -7 15 9 13 -29 -2 -53 -6 -9 -5 -12 1 -8 6 4 10 -14 10
-44 0 -30 -3 -45 -8 -37 -5 7 -9 10 -9 5 0 -4 6 -16 12 -27 10 -16 10 -24 0
-41 -8 -12 -10 -19 -5 -16 14 9 13 -156 0 -172 -9 -12 -9 -13 0 -7 10 5 13 -4
13 -33 0 -43 5 -47 58 -42 16 1 21 -2 16 -10 -5 -8 -3 -9 7 -3 8 5 24 10 36
12 18 2 21 -1 17 -15 -5 -14 -4 -15 4 -4 14 19 67 27 56 9 -6 -10 -4 -10 9 0
9 8 20 11 26 8 23 -15 37 22 35 93 -2 53 0 70 9 64 8 -5 8 -2 -1 9 -10 13 -10
17 0 21 10 4 10 6 1 6 -7 1 -13 8 -13 17 0 9 5 12 12 8 7 -5 8 -3 2 7 -12 20
-12 159 1 159 6 0 6 3 -1 8 -15 9 -14 224 0 234 7 5 7 8 -1 8 -7 0 -13 7 -13
16 0 9 5 12 13 8 9 -6 9 -4 -1 8 -10 13 -10 17 0 21 10 4 10 6 1 6 -7 1 -13 8
-13 17 0 8 4 13 8 10 4 -2 8 4 8 14 0 10 -4 16 -8 14 -4 -3 -8 4 -8 16 0 12 5
18 10 15 6 -3 10 -1 10 4 0 6 -4 11 -10 11 -5 0 -10 7 -10 16 0 9 5 12 13 8 9
-6 9 -4 -1 8 -10 13 -10 17 0 21 10 4 10 6 1 6 -7 1 -13 8 -13 17 0 9 5 12 13
8 9 -6 9 -4 -1 8 -10 13 -10 17 0 21 10 4 10 6 1 6 -7 1 -13 8 -13 17 0 9 5
12 13 8 9 -6 9 -4 1 7 -13 17 -13 298 0 318 6 10 6 12 -3 7 -15 -10 -11 25 4
36 6 5 5 8 -2 8 -9 0 -13 15 -13 43 l0 42 -70 -2 c-43 -1 -68 2 -65 7 4 6 4
10 1 10 -3 0 -7 -4 -10 -8z"/>
<path d="M696 1561 c-3 -4 -43 -9 -88 -10 -45 -1 -84 -4 -86 -6 -3 -2 -5 -26
-6 -52 0 -26 -5 -51 -11 -55 -6 -5 -5 -8 3 -8 6 0 12 -7 12 -16 0 -9 -5 -12
-12 -8 -8 5 -8 3 -2 -7 5 -8 9 -42 9 -77 0 -51 -3 -61 -15 -57 -10 3 -10 1 3
-9 18 -14 24 -42 7 -31 -5 3 -10 1 -10 -4 0 -6 5 -11 10 -11 6 0 10 -7 10 -16
0 -8 -4 -12 -10 -9 -5 3 -10 1 -10 -4 0 -6 4 -11 9 -11 12 0 11 -59 -1 -84 -7
-13 -7 -16 1 -12 7 5 11 -1 11 -14 0 -13 -4 -19 -12 -14 -7 5 -8 3 -2 -7 12
-20 13 -100 1 -92 -6 4 -7 1 -1 -8 12 -20 12 -92 -1 -101 -6 -5 -6 -8 3 -8 6
0 12 -7 12 -16 0 -9 -5 -12 -12 -8 -7 5 -8 3 -2 -7 12 -20 12 -79 0 -79 -8 0
-8 -3 0 -8 13 -9 14 -173 1 -165 -6 4 -7 1 -1 -8 12 -20 12 -132 -1 -141 -6
-5 -6 -8 3 -8 6 0 12 -7 12 -16 0 -9 -5 -12 -12 -8 -7 5 -8 3 -2 -7 5 -8 10
-50 10 -94 1 -44 3 -86 3 -92 1 -8 14 -13 32 -13 20 0 28 -4 23 -12 -5 -7 -3
-8 7 -2 21 13 62 17 55 5 -4 -5 -2 -13 4 -16 6 -4 9 -1 8 6 -2 7 10 14 29 16
24 3 32 0 36 -14 4 -17 5 -17 6 0 1 12 10 17 31 17 27 0 35 9 31 34 -1 4 4 15
11 24 10 12 10 14 1 8 -17 -10 -13 42 4 56 7 6 13 15 13 21 0 6 -7 2 -15 -9
-11 -15 -14 -16 -15 -4 0 9 6 22 13 29 10 11 9 12 -1 7 -15 -9 -13 29 2 53 6
10 5 12 -3 7 -14 -9 -11 30 3 53 6 10 5 12 -2 7 -7 -4 -12 -2 -12 3 0 6 6 11
13 11 9 0 9 2 0 8 -15 10 -12 117 5 134 6 6 12 16 12 22 0 5 -7 1 -15 -10 -11
-15 -14 -16 -15 -4 0 9 6 22 13 29 10 11 9 12 -1 7 -15 -9 -13 29 2 53 6 10 5
12 -3 7 -14 -9 -11 30 3 53 6 9 5 12 -1 8 -7 -5 -10 27 -10 94 0 57 4 95 8 87
6 -9 9 -9 9 -1 0 6 -5 15 -11 18 -12 8 -9 54 6 74 7 11 7 13 -3 7 -10 -6 -12
-1 -9 21 3 15 10 27 16 25 6 -1 11 3 11 9 0 6 -7 8 -15 5 -12 -4 -15 0 -13 17
2 12 7 28 12 36 6 10 5 12 -3 7 -8 -6 -11 0 -8 21 3 15 10 27 16 25 7 -1 10 2
6 8 -3 6 -11 8 -16 5 -14 -9 -11 19 4 34 6 8 7 11 1 8 -8 -5 -11 30 -12 121 0
70 0 135 -1 145 -1 13 -10 17 -42 17 -24 0 -38 4 -34 10 3 6 4 10 1 10 -3 0
-7 -4 -10 -9z"/>
<path d="M1474 1563 c4 -8 -19 -11 -89 -11 -53 1 -99 -2 -103 -6 -4 -4 -7
-200 -7 -436 0 -287 -3 -426 -10 -422 -5 3 -4 -1 3 -10 10 -13 10 -17 0 -21
-10 -4 -10 -6 0 -6 6 -1 12 -8 12 -17 0 -8 -4 -13 -9 -9 -5 3 -13 1 -16 -5 -4
-6 -3 -10 2 -9 20 3 27 -2 13 -11 -10 -6 -11 -10 -2 -10 6 0 12 -7 12 -16 0
-9 -5 -12 -12 -8 -10 6 -10 4 0 -8 10 -13 10 -17 0 -21 -10 -4 -10 -6 0 -6 6
-1 12 -8 12 -17 0 -9 -5 -12 -12 -8 -9 5 -9 2 1 -9 11 -14 11 -17 0 -17 -12 0
-12 -2 -1 -9 15 -9 13 -42 -3 -53 -6 -5 -5 -8 2 -8 15 0 13 -50 -2 -50 -7 0
-7 -3 0 -8 6 -4 12 -47 12 -96 1 -48 4 -90 7 -93 3 -3 26 -6 50 -6 31 0 43 -3
39 -11 -5 -8 -3 -8 8 0 8 6 47 11 87 10 62 -1 72 1 73 17 2 26 4 31 13 46 6
10 5 12 -2 7 -16 -10 -15 16 1 33 6 8 7 11 1 8 -16 -9 -17 72 -1 91 6 9 7 13
1 9 -17 -10 -13 66 4 79 12 9 12 13 2 19 -9 5 -11 4 -6 -3 4 -7 2 -12 -3 -12
-15 0 -14 33 2 49 10 11 9 12 -1 6 -16 -8 -13 26 3 37 6 5 5 8 -2 8 -7 0 -13
7 -13 16 0 9 5 12 13 8 9 -6 9 -4 1 7 -15 19 -15 140 -1 158 10 12 9 13 -1 7
-16 -10 -13 25 3 36 6 5 5 8 -2 8 -7 0 -13 7 -13 16 0 9 5 12 13 8 9 -6 9 -4
1 7 -15 19 -15 140 -1 158 10 12 9 13 -1 7 -16 -10 -13 25 3 36 6 5 5 8 -2 8
-7 0 -13 7 -13 16 0 9 5 12 13 8 10 -6 10 -4 0 7 -7 7 -13 29 -13 49 0 20 6
42 13 49 6 8 7 11 1 8 -17 -10 -13 66 4 79 12 9 12 13 2 19 -9 5 -11 4 -6 -3
4 -7 3 -12 -2 -12 -13 0 -12 133 1 149 9 12 9 13 0 7 -10 -5 -13 2 -13 26 0
19 6 40 13 47 10 11 9 12 -1 6 -10 -5 -13 -1 -12 11 5 43 0 54 -23 54 -13 0
-29 6 -36 13 -9 8 -12 8 -7 0z"/>
<path d="M1775 1560 c-4 -6 -12 -10 -18 -9 -7 1 -31 1 -54 0 -43 -1 -43 -1
-43 -39 0 -21 -6 -44 -12 -51 -7 -8 -8 -11 -2 -8 17 10 13 -86 -4 -99 -12 -9
-13 -13 -2 -19 9 -5 11 -4 6 3 -4 7 -3 12 2 12 13 0 12 -133 -1 -149 -8 -9 -8
-12 -1 -8 17 10 13 -66 -4 -79 -12 -9 -12 -13 -2 -19 9 -5 11 -4 6 3 -4 7 -2
12 3 12 15 0 14 -33 -1 -49 -11 -11 -10 -12 0 -6 16 8 13 -26 -3 -37 -6 -5 -5
-8 3 -8 6 0 12 -7 12 -16 0 -9 -5 -12 -12 -8 -10 6 -10 4 -2 -7 15 -19 15
-140 1 -158 -10 -12 -9 -13 1 -7 16 10 13 -25 -3 -36 -6 -5 -5 -8 3 -8 6 0 12
-7 12 -16 0 -9 -5 -12 -12 -8 -10 6 -10 4 -2 -7 15 -19 15 -140 1 -158 -10
-12 -9 -13 1 -7 16 10 13 -25 -3 -36 -6 -5 -5 -8 3 -8 6 0 12 -7 12 -16 0 -9
-5 -12 -12 -8 -10 6 -10 4 0 -7 6 -7 12 -29 12 -49 0 -20 -6 -42 -12 -49 -7
-8 -8 -11 -2 -8 17 10 13 -66 -4 -79 -12 -9 -12 -13 -2 -19 9 -5 11 -4 6 3 -4
7 -3 12 2 12 5 0 9 -31 9 -70 0 -38 3 -73 7 -77 3 -4 22 -7 41 -6 22 1 33 -3
28 -10 -4 -6 -1 -7 8 -1 8 5 24 10 36 12 18 2 21 -1 17 -15 -5 -14 -4 -15 4
-4 13 18 67 28 56 10 -5 -8 -3 -9 7 -3 8 4 23 10 34 11 10 2 22 8 25 12 4 7 5
1313 1 1369 -1 6 -10 12 -22 12 -11 0 -17 5 -14 10 3 6 1 10 -4 10 -6 0 -11
-4 -11 -9 0 -5 -20 -9 -45 -9 -25 0 -43 4 -39 9 3 5 3 9 0 9 -3 0 -8 -5 -11
-10z"/>
<path d="M940 1552 c-42 -4 -49 -14 -43 -59 3 -24 1 -33 -6 -29 -6 4 -8 12 -5
18 5 7 2 8 -5 4 -9 -6 -9 -12 3 -25 19 -21 21 -41 4 -41 -10 0 -10 -2 -1 -8
13 -8 13 -110 -1 -131 -6 -10 -5 -12 2 -7 8 5 11 -9 9 -44 0 -27 -6 -50 -12
-50 -5 0 -4 -4 3 -9 14 -8 13 -46 -2 -70 -6 -10 -5 -12 3 -7 14 9 11 -30 -3
-53 -6 -9 -5 -12 2 -7 8 5 11 -9 9 -44 0 -27 -6 -50 -12 -50 -6 0 -5 -3 2 -8
13 -8 13 -110 -1 -131 -6 -10 -5 -12 2 -7 8 5 11 -9 9 -44 0 -27 -6 -50 -12
-50 -6 0 -5 -3 2 -8 13 -8 13 -110 -1 -131 -6 -9 -5 -12 2 -8 7 5 10 -22 9
-83 -1 -56 -5 -90 -11 -90 -7 0 -7 -3 0 -8 8 -5 11 -40 10 -105 -1 -54 2 -101
7 -104 6 -3 29 -6 53 -6 27 0 41 -4 37 -10 -4 -6 -1 -7 8 -1 24 15 62 16 70 2
7 -11 9 -11 9 0 0 9 11 13 37 10 32 -3 37 0 43 22 3 14 6 47 5 73 -1 39 2 47
14 42 12 -4 12 -2 -1 9 -19 14 -25 42 -8 31 6 -3 10 -1 10 4 0 6 -4 11 -10 11
-5 0 -10 7 -10 16 0 9 5 12 12 8 7 -5 8 -3 2 7 -12 19 -12 52 1 61 6 5 6 8 -2
8 -7 0 -13 7 -13 16 0 9 5 12 12 8 7 -5 8 -3 2 7 -12 19 -12 52 1 61 6 5 6 8
-2 8 -14 0 -15 57 -1 84 7 13 7 16 -1 12 -7 -5 -11 1 -11 14 0 14 4 19 13 14
9 -6 9 -4 1 7 -14 19 -16 61 -2 53 7 -5 8 -2 2 7 -13 21 -15 141 -2 133 7 -5
8 -2 2 7 -12 20 -12 119 1 119 7 0 7 3 0 8 -15 10 -16 194 -1 185 8 -5 8 -3 0
8 -12 16 -12 98 1 119 5 8 4 11 -1 7 -6 -3 -10 39 -10 104 0 60 -2 111 -5 113
-6 7 -173 12 -219 8z"/>
<path d="M1555 1449 c-4 -6 -5 -12 -2 -15 2 -3 7 2 10 11 7 17 1 20 -8 4z"/>
<path d="M1550 940 c0 -5 5 -10 11 -10 5 0 7 5 4 10 -3 6 -8 10 -11 10 -2 0
-4 -4 -4 -10z"/>
<path d="M1635 940 c-3 -5 -1 -10 4 -10 6 0 11 5 11 10 0 6 -2 10 -4 10 -3 0
-8 -4 -11 -10z"/>
<path d="M1550 859 c0 -5 5 -7 10 -4 6 3 10 8 10 11 0 2 -4 4 -10 4 -5 0 -10
-5 -10 -11z"/>
<path d="M1635 860 c3 -5 8 -10 11 -10 2 0 4 5 4 10 0 6 -5 10 -11 10 -5 0 -7
-4 -4 -10z"/>
<path d="M1550 700 c0 -5 5 -10 11 -10 5 0 7 5 4 10 -3 6 -8 10 -11 10 -2 0
-4 -4 -4 -10z"/>
<path d="M1635 700 c-3 -5 -1 -10 4 -10 6 0 11 5 11 10 0 6 -2 10 -4 10 -3 0
-8 -4 -11 -10z"/>
<path d="M1550 619 c0 -5 5 -7 10 -4 6 3 10 8 10 11 0 2 -4 4 -10 4 -5 0 -10
-5 -10 -11z"/>
<path d="M1635 620 c3 -5 8 -10 11 -10 2 0 4 5 4 10 0 6 -5 10 -11 10 -5 0 -7
-4 -4 -10z"/>
</g>
</svg>
